<mxfile host="app.diagrams.net" modified="2023-09-13T12:03:40.394Z" agent="Mozilla/5.0 (Windows NT 10.0; Win64; x64) AppleWebKit/537.36 (KHTML, like Gecko) Chrome/116.0.0.0 Safari/537.36" etag="PoU1atNk9Hor-8rE7Ukp" version="21.7.4" type="github">
  <diagram name="Page-1" id="uaAQwHM33eKhIU9pJILs">
    <mxGraphModel dx="1134" dy="603" grid="1" gridSize="10" guides="1" tooltips="1" connect="1" arrows="1" fold="1" page="1" pageScale="1" pageWidth="850" pageHeight="1100" math="0" shadow="0">
      <root>
        <mxCell id="0" />
        <mxCell id="1" parent="0" />
        <mxCell id="3TAN3Yj39EKP7RnwMrrD-4" value="ESP32" style="shape=umlActor;verticalLabelPosition=bottom;verticalAlign=top;html=1;outlineConnect=0;" vertex="1" parent="1">
          <mxGeometry x="140" y="70" width="50" height="80" as="geometry" />
        </mxCell>
        <mxCell id="3TAN3Yj39EKP7RnwMrrD-7" value="Users" style="shape=umlActor;verticalLabelPosition=bottom;verticalAlign=top;html=1;outlineConnect=0;" vertex="1" parent="1">
          <mxGeometry x="150" y="575" width="50" height="80" as="geometry" />
        </mxCell>
        <mxCell id="3TAN3Yj39EKP7RnwMrrD-12" value="" style="rounded=0;whiteSpace=wrap;html=1;" vertex="1" parent="1">
          <mxGeometry x="300" y="30" width="520" height="870" as="geometry" />
        </mxCell>
        <mxCell id="3TAN3Yj39EKP7RnwMrrD-13" value="machine motor monitoring" style="text;html=1;strokeColor=none;fillColor=none;align=center;verticalAlign=middle;whiteSpace=wrap;rounded=0;" vertex="1" parent="1">
          <mxGeometry x="430" y="50" width="215" height="30" as="geometry" />
        </mxCell>
        <mxCell id="3TAN3Yj39EKP7RnwMrrD-14" value="View Data Visualization" style="ellipse;whiteSpace=wrap;html=1;" vertex="1" parent="1">
          <mxGeometry x="470" y="620" width="150" height="50" as="geometry" />
        </mxCell>
        <mxCell id="3TAN3Yj39EKP7RnwMrrD-21" value="Database" style="shape=umlActor;verticalLabelPosition=bottom;verticalAlign=top;html=1;outlineConnect=0;" vertex="1" parent="1">
          <mxGeometry x="140" y="250" width="50" height="80" as="geometry" />
        </mxCell>
        <mxCell id="3TAN3Yj39EKP7RnwMrrD-24" value="Monitor Temperature" style="ellipse;whiteSpace=wrap;html=1;" vertex="1" parent="1">
          <mxGeometry x="470" y="110" width="150" height="50" as="geometry" />
        </mxCell>
        <mxCell id="3TAN3Yj39EKP7RnwMrrD-25" value="Monitor Voltage" style="ellipse;whiteSpace=wrap;html=1;" vertex="1" parent="1">
          <mxGeometry x="475" y="190" width="150" height="50" as="geometry" />
        </mxCell>
        <mxCell id="3TAN3Yj39EKP7RnwMrrD-26" value="Monitor Current" style="ellipse;whiteSpace=wrap;html=1;" vertex="1" parent="1">
          <mxGeometry x="470" y="270" width="150" height="50" as="geometry" />
        </mxCell>
        <mxCell id="3TAN3Yj39EKP7RnwMrrD-27" value="Monitor Acceleration" style="ellipse;whiteSpace=wrap;html=1;" vertex="1" parent="1">
          <mxGeometry x="475" y="350" width="150" height="50" as="geometry" />
        </mxCell>
        <mxCell id="3TAN3Yj39EKP7RnwMrrD-29" value="Store Data in Database" style="ellipse;whiteSpace=wrap;html=1;" vertex="1" parent="1">
          <mxGeometry x="475" y="440" width="150" height="50" as="geometry" />
        </mxCell>
        <mxCell id="3TAN3Yj39EKP7RnwMrrD-31" value="Access and&amp;nbsp; get Data from Database" style="ellipse;whiteSpace=wrap;html=1;" vertex="1" parent="1">
          <mxGeometry x="475" y="525" width="150" height="50" as="geometry" />
        </mxCell>
        <mxCell id="3TAN3Yj39EKP7RnwMrrD-32" value="Web app" style="shape=umlActor;verticalLabelPosition=bottom;verticalAlign=top;html=1;outlineConnect=0;" vertex="1" parent="1">
          <mxGeometry x="150" y="420" width="50" height="80" as="geometry" />
        </mxCell>
        <mxCell id="3TAN3Yj39EKP7RnwMrrD-33" value="" style="endArrow=none;html=1;rounded=0;exitX=0.5;exitY=0.5;exitDx=0;exitDy=0;exitPerimeter=0;" edge="1" parent="1" source="3TAN3Yj39EKP7RnwMrrD-4" target="3TAN3Yj39EKP7RnwMrrD-24">
          <mxGeometry width="50" height="50" relative="1" as="geometry">
            <mxPoint x="320" y="350" as="sourcePoint" />
            <mxPoint x="370" y="300" as="targetPoint" />
          </mxGeometry>
        </mxCell>
        <mxCell id="3TAN3Yj39EKP7RnwMrrD-34" value="" style="endArrow=none;html=1;rounded=0;exitX=0.5;exitY=0.5;exitDx=0;exitDy=0;exitPerimeter=0;" edge="1" parent="1" source="3TAN3Yj39EKP7RnwMrrD-4" target="3TAN3Yj39EKP7RnwMrrD-25">
          <mxGeometry width="50" height="50" relative="1" as="geometry">
            <mxPoint x="320" y="350" as="sourcePoint" />
            <mxPoint x="370" y="300" as="targetPoint" />
          </mxGeometry>
        </mxCell>
        <mxCell id="3TAN3Yj39EKP7RnwMrrD-35" value="" style="endArrow=none;html=1;rounded=0;entryX=0.062;entryY=0.711;entryDx=0;entryDy=0;entryPerimeter=0;exitX=0.5;exitY=0.5;exitDx=0;exitDy=0;exitPerimeter=0;" edge="1" parent="1" source="3TAN3Yj39EKP7RnwMrrD-4" target="3TAN3Yj39EKP7RnwMrrD-26">
          <mxGeometry width="50" height="50" relative="1" as="geometry">
            <mxPoint x="320" y="350" as="sourcePoint" />
            <mxPoint x="370" y="300" as="targetPoint" />
          </mxGeometry>
        </mxCell>
        <mxCell id="3TAN3Yj39EKP7RnwMrrD-37" value="" style="endArrow=none;html=1;rounded=0;entryX=0;entryY=0.5;entryDx=0;entryDy=0;exitX=0.5;exitY=0.5;exitDx=0;exitDy=0;exitPerimeter=0;" edge="1" parent="1" source="3TAN3Yj39EKP7RnwMrrD-4" target="3TAN3Yj39EKP7RnwMrrD-27">
          <mxGeometry width="50" height="50" relative="1" as="geometry">
            <mxPoint x="320" y="350" as="sourcePoint" />
            <mxPoint x="370" y="300" as="targetPoint" />
          </mxGeometry>
        </mxCell>
        <mxCell id="3TAN3Yj39EKP7RnwMrrD-38" value="" style="endArrow=none;html=1;rounded=0;entryX=0;entryY=0.5;entryDx=0;entryDy=0;exitX=0.5;exitY=0.5;exitDx=0;exitDy=0;exitPerimeter=0;" edge="1" parent="1" source="3TAN3Yj39EKP7RnwMrrD-4" target="3TAN3Yj39EKP7RnwMrrD-29">
          <mxGeometry width="50" height="50" relative="1" as="geometry">
            <mxPoint x="320" y="350" as="sourcePoint" />
            <mxPoint x="370" y="300" as="targetPoint" />
          </mxGeometry>
        </mxCell>
        <mxCell id="3TAN3Yj39EKP7RnwMrrD-39" value="" style="endArrow=none;html=1;rounded=0;exitX=0.5;exitY=0.5;exitDx=0;exitDy=0;exitPerimeter=0;entryX=0;entryY=0.5;entryDx=0;entryDy=0;" edge="1" parent="1" source="3TAN3Yj39EKP7RnwMrrD-21" target="3TAN3Yj39EKP7RnwMrrD-29">
          <mxGeometry width="50" height="50" relative="1" as="geometry">
            <mxPoint x="320" y="350" as="sourcePoint" />
            <mxPoint x="370" y="300" as="targetPoint" />
          </mxGeometry>
        </mxCell>
        <mxCell id="3TAN3Yj39EKP7RnwMrrD-40" value="" style="endArrow=none;html=1;rounded=0;entryX=0;entryY=0.5;entryDx=0;entryDy=0;" edge="1" parent="1" source="3TAN3Yj39EKP7RnwMrrD-21" target="3TAN3Yj39EKP7RnwMrrD-31">
          <mxGeometry width="50" height="50" relative="1" as="geometry">
            <mxPoint x="320" y="350" as="sourcePoint" />
            <mxPoint x="370" y="300" as="targetPoint" />
          </mxGeometry>
        </mxCell>
        <mxCell id="3TAN3Yj39EKP7RnwMrrD-41" value="" style="endArrow=none;html=1;rounded=0;exitX=0.5;exitY=0.5;exitDx=0;exitDy=0;exitPerimeter=0;entryX=0;entryY=0.5;entryDx=0;entryDy=0;" edge="1" parent="1" source="3TAN3Yj39EKP7RnwMrrD-32" target="3TAN3Yj39EKP7RnwMrrD-31">
          <mxGeometry width="50" height="50" relative="1" as="geometry">
            <mxPoint x="320" y="350" as="sourcePoint" />
            <mxPoint x="370" y="300" as="targetPoint" />
          </mxGeometry>
        </mxCell>
        <mxCell id="3TAN3Yj39EKP7RnwMrrD-42" value="" style="endArrow=none;html=1;rounded=0;exitX=0.5;exitY=0.5;exitDx=0;exitDy=0;exitPerimeter=0;entryX=0;entryY=0.5;entryDx=0;entryDy=0;" edge="1" parent="1" source="3TAN3Yj39EKP7RnwMrrD-7" target="3TAN3Yj39EKP7RnwMrrD-14">
          <mxGeometry width="50" height="50" relative="1" as="geometry">
            <mxPoint x="320" y="490" as="sourcePoint" />
            <mxPoint x="370" y="440" as="targetPoint" />
          </mxGeometry>
        </mxCell>
      </root>
    </mxGraphModel>
  </diagram>
</mxfile>
